<svg width="191" height="161" viewBox="0 0 191 161" fill="none" xmlns="http://www.w3.org/2000/svg">
<g filter="url(#filter0_d_12_133)">
<path d="M15 56C15 33.3563 33.3563 15 56 15H123.771C146.414 15 164.771 33.3563 164.771 56V87C164.771 109.644 146.414 128 123.771 128H56C33.3563 128 15 109.644 15 87V56Z" fill="url(#paint0_linear_12_133)" shape-rendering="crispEdges"/>
<path d="M56 7.5C29.2142 7.5 7.5 29.2142 7.5 56V87C7.5 113.786 29.2142 135.5 56 135.5H123.771C150.557 135.5 172.271 113.786 172.271 87V56C172.271 29.2142 150.557 7.5 123.771 7.5H56Z" stroke="#FFC12C" stroke-width="15" shape-rendering="crispEdges"/>
</g>
<g filter="url(#filter1_d_12_133)">
<path d="M84.8064 16.3145C85.9622 15.4677 87.4543 15 89 15C90.5457 15 92.0378 15.4677 93.1936 16.3145L150.034 58.0003C151.222 58.9316 151.925 60.2074 151.994 61.5583C152.064 62.9092 151.494 64.2294 150.405 65.24C149.316 66.2506 147.794 66.8724 146.16 66.9741C144.525 67.0759 142.907 66.6495 141.647 65.7851L139.525 64.2376V103.579C139.525 106.342 138.194 108.993 135.825 110.948C133.457 112.902 130.244 114 126.894 114H51.1063C47.7563 114 44.5435 112.902 42.1746 110.948C39.8058 108.993 38.475 106.342 38.475 103.579V64.2376L36.353 65.7851C35.0928 66.6495 33.4747 67.0759 31.8405 66.9741C30.2063 66.8724 28.684 66.2506 27.5953 65.24C26.5065 64.2294 25.9365 62.9092 26.0056 61.5583C26.0748 60.2074 26.7777 58.9316 27.9659 58.0003L84.8064 16.3145ZM51.1063 54.9625V103.579H70.0531V77.5249C70.0531 76.1429 70.7185 74.8176 71.9029 73.8404C73.0874 72.8632 74.6938 72.3142 76.3688 72.3142H101.631C103.306 72.3142 104.913 72.8632 106.097 73.8404C107.281 74.8176 107.947 76.1429 107.947 77.5249V103.579H126.894V54.9677L89 27.1789L51.1063 54.9677V54.9625ZM95.3156 103.579V82.7356H82.6844V103.579H95.3156Z" fill="white"/>
</g>
<defs>
<filter id="filter0_d_12_133" x="0" y="0" width="190.771" height="161" filterUnits="userSpaceOnUse" color-interpolation-filters="sRGB">
<feFlood flood-opacity="0" result="BackgroundImageFix"/>
<feColorMatrix in="SourceAlpha" type="matrix" values="0 0 0 0 0 0 0 0 0 0 0 0 0 0 0 0 0 0 127 0" result="hardAlpha"/>
<feOffset dx="6" dy="13"/>
<feGaussianBlur stdDeviation="2.5"/>
<feComposite in2="hardAlpha" operator="out"/>
<feColorMatrix type="matrix" values="0 0 0 0 1 0 0 0 0 1 0 0 0 0 1 0 0 0 1 0"/>
<feBlend mode="normal" in2="BackgroundImageFix" result="effect1_dropShadow_12_133"/>
<feBlend mode="normal" in="SourceGraphic" in2="effect1_dropShadow_12_133" result="shape"/>
</filter>
<filter id="filter1_d_12_133" x="22" y="15" width="134" height="107" filterUnits="userSpaceOnUse" color-interpolation-filters="sRGB">
<feFlood flood-opacity="0" result="BackgroundImageFix"/>
<feColorMatrix in="SourceAlpha" type="matrix" values="0 0 0 0 0 0 0 0 0 0 0 0 0 0 0 0 0 0 127 0" result="hardAlpha"/>
<feOffset dy="4"/>
<feGaussianBlur stdDeviation="2"/>
<feComposite in2="hardAlpha" operator="out"/>
<feColorMatrix type="matrix" values="0 0 0 0 0 0 0 0 0 0 0 0 0 0 0 0 0 0 0.25 0"/>
<feBlend mode="normal" in2="BackgroundImageFix" result="effect1_dropShadow_12_133"/>
<feBlend mode="normal" in="SourceGraphic" in2="effect1_dropShadow_12_133" result="shape"/>
</filter>
<linearGradient id="paint0_linear_12_133" x1="164.771" y1="124.217" x2="-29.5095" y2="-92.0159" gradientUnits="userSpaceOnUse">
<stop stop-color="#F09F1B"/>
<stop offset="0.690955" stop-color="#FFB80C" stop-opacity="0.53"/>
</linearGradient>
</defs>
</svg>
