<svg width="96" height="102" viewBox="0 0 96 102" fill="none" xmlns="http://www.w3.org/2000/svg">
<path d="M48 10.2C37.8157 10.2 28.0485 14.4986 20.8471 22.15C13.6457 29.8015 9.6 40.1792 9.6 51C9.6 61.8208 13.6457 72.1985 20.8471 79.85C28.0485 87.5014 37.8157 91.8 48 91.8C58.1843 91.8 67.9515 87.5014 75.1529 79.85C82.3543 72.1985 86.4 61.8208 86.4 51C86.4 40.1792 82.3543 29.8015 75.1529 22.15C67.9515 14.4986 58.1843 10.2 48 10.2ZM0 51C0 22.8327 21.4896 0 48 0C74.5104 0 96 22.8327 96 51C96 79.1673 74.5104 102 48 102C21.4896 102 0 79.1673 0 51ZM70.3872 34.4403C71.3375 35.3388 71.9133 36.6014 71.988 37.9507C72.0627 39.3001 71.6302 40.6257 70.7856 41.6364L45.1872 72.2364C44.7369 72.7748 44.1843 73.2058 43.5658 73.5009C42.9474 73.7961 42.2772 73.9487 41.5992 73.9487C40.9212 73.9487 40.251 73.7961 39.6326 73.5009C39.0141 73.2058 38.4615 72.7748 38.0112 72.2364L25.2144 56.9364C24.4182 55.9187 24.0254 54.6121 24.1191 53.2924C24.2128 51.9728 24.7857 50.7436 25.7166 49.8643C26.6475 48.9851 27.8636 48.5248 29.1081 48.5807C30.3525 48.6365 31.5278 49.2041 32.3856 50.1636L41.6016 61.1745L63.6144 34.8585C64.4607 33.8495 65.6494 33.2387 66.9193 33.1603C68.1893 33.0819 69.4366 33.5423 70.3872 34.4403Z" fill="#FFC12C"/>
</svg>
