<svg width="188" height="193" viewBox="0 0 188 193" fill="none" xmlns="http://www.w3.org/2000/svg">
<path d="M178.202 10.8704L178.201 10.8687C175.656 7.5839 171.848 5.39295 167.493 5.6091C163.185 5.82291 159.579 8.32978 157.223 11.7174L157.22 11.7223L66.8502 141.999L30.8634 82.9347L30.8235 82.8691L30.7815 82.8047C28.5715 79.4165 25.1194 76.8655 20.9065 76.4969C16.6615 76.1255 12.8361 78.0752 10.1592 81.1364C7.51437 84.1609 6.00149 88.1941 5.65221 92.3029C5.3023 96.419 6.11268 100.668 8.10788 104.177L8.14514 104.242L8.18436 104.307L54.682 180.63C54.6821 180.63 54.6822 180.631 54.6823 180.631C55.833 182.52 57.3488 184.181 59.2061 185.398C61.0774 186.624 63.2303 187.352 65.5084 187.42C67.7866 187.487 69.9788 186.887 71.9194 185.774C73.8455 184.67 75.4571 183.102 76.7177 181.284C76.7178 181.284 76.7179 181.284 76.718 181.284L178.593 34.4124L178.594 34.4104C180.938 31.0279 182.096 26.7603 182.039 22.5445C181.983 18.3349 180.713 14.1138 178.202 10.8704Z" fill="white" stroke="white" stroke-width="10"/>
</svg>
