<svg width="75" height="65" viewBox="0 0 75 65" fill="none" xmlns="http://www.w3.org/2000/svg">
<path d="M35.4249 6.10187C35.9968 5.66174 36.735 5.41865 37.4999 5.41865C38.2647 5.41865 39.003 5.66174 39.5749 6.10187L67.6999 27.7685C68.2878 28.2526 68.6356 28.9157 68.6698 29.6178C68.704 30.32 68.422 31.0062 67.8832 31.5314C67.3445 32.0567 66.5913 32.3799 65.7827 32.4328C64.9741 32.4857 64.1734 32.264 63.5499 31.8148L62.4999 31.0104V51.4583C62.4999 52.8949 61.8414 54.2727 60.6693 55.2885C59.4972 56.3043 57.9075 56.875 56.2499 56.875H18.7499C17.0923 56.875 15.5025 56.3043 14.3304 55.2885C13.1583 54.2727 12.4999 52.8949 12.4999 51.4583V31.0104L11.4499 31.8148C10.8263 32.264 10.0256 32.4857 9.21705 32.4328C8.40845 32.3799 7.65523 32.0567 7.1165 31.5314C6.57777 31.0062 6.29572 30.32 6.32993 29.6178C6.36415 28.9157 6.71195 28.2526 7.29986 27.7685L35.4249 6.10187ZM18.7499 26.1896V51.4583H28.1249V37.9167C28.1249 37.1984 28.4541 36.5095 29.0402 36.0016C29.6262 35.4937 30.4211 35.2083 31.2499 35.2083H43.7499C44.5787 35.2083 45.3735 35.4937 45.9596 36.0016C46.5456 36.5095 46.8749 37.1984 46.8749 37.9167V51.4583H56.2499V26.1923L37.4999 11.7487L18.7499 26.1923V26.1896ZM40.6249 51.4583V40.625H34.3749V51.4583H40.6249Z" fill="#FFC12C"/>
</svg>
