<svg width="52" height="49" viewBox="0 0 42 39" fill="none" xmlns="http://www.w3.org/2000/svg">
<path d="M35.8507 18.9583C36.9917 18.9583 38.0859 18.5303 38.8927 17.7684C39.6995 17.0066 40.1528 15.9733 40.1528 14.8958C40.1528 13.8184 39.6995 12.7851 38.8927 12.0232C38.0859 11.2613 36.9917 10.8333 35.8507 10.8333C34.7097 10.8333 33.6154 11.2613 32.8086 12.0232C32.0018 12.7851 31.5486 13.8184 31.5486 14.8958C31.5486 15.9733 32.0018 17.0066 32.8086 17.7684C33.6154 18.5303 34.7097 18.9583 35.8507 18.9583V18.9583Z" fill="#FFB300"/>
<path d="M0 5.41667C0 3.98008 0.604338 2.60233 1.68007 1.5865C2.7558 0.570683 4.2148 0 5.73611 0H45.8889C47.4102 0 48.8692 0.570683 49.9449 1.5865C51.0207 2.60233 51.625 3.98008 51.625 5.41667V43.3333C51.625 44.7699 51.0207 46.1477 49.9449 47.1635C48.8692 48.1793 47.4102 48.75 45.8889 48.75H5.73611C4.2148 48.75 2.7558 48.1793 1.68007 47.1635C0.604338 46.1477 0 44.7699 0 43.3333V5.41667ZM45.8889 5.41667H5.73611V26.8667L15.4158 19.5542C15.9245 19.1696 16.5567 18.96 17.2083 18.96C17.86 18.96 18.4922 19.1696 19.0009 19.5542L31.3335 28.8708L35.257 25.1685C35.7948 24.6608 36.5242 24.3756 37.2847 24.3756C38.0452 24.3756 38.7746 24.6608 39.3124 25.1685L45.8889 31.3788V5.41667ZM5.73611 43.3333H45.8889V39.0379L37.2847 30.9129L33.5763 34.4148C33.0773 34.8863 32.4116 35.1675 31.7068 35.2045C31.0019 35.2414 30.3073 35.0316 29.7561 34.6152L17.2083 25.1333L5.73611 33.8V43.3333Z" fill="#FFB300"/>
</svg>
