<svg width="468" height="669" viewBox="0 0 468 669" fill="none" xmlns="http://www.w3.org/2000/svg">
<g filter="url(#filter0_f_1_246)">
<path d="M202.364 34.365C205.183 26.0986 216.939 26.2876 219.49 34.6403L248.465 129.503C250.292 135.483 257.508 137.824 262.497 134.056L405.414 26.1203C413.206 20.2357 423.478 29.2305 418.673 37.7308L319.031 214.017C316.545 218.414 318.165 223.995 322.617 226.379L377 255.5L438.855 284.89C447.046 288.781 444.99 300.974 435.976 301.965L308.897 315.932C302.654 316.618 299.016 323.326 301.845 328.933L371.917 467.793C376.336 476.55 365.548 485.055 358.064 478.715L220.258 361.969C215.756 358.156 208.865 359.632 206.32 364.955L90.0258 608.224C85.4957 617.7 71.1683 613.061 73.0518 602.728L123.547 325.709C124.402 321.017 121.448 316.472 116.812 315.348L20.0936 291.914C12.4508 290.062 10.6918 279.988 17.255 275.656L92.1584 226.214C95.8177 223.799 97.2038 219.098 95.4406 215.083L52.1776 116.586C48.621 108.489 57.6541 100.655 65.1666 105.322L148.808 157.276C153.726 160.331 160.207 158.015 162.075 152.536L202.364 34.365Z" fill="#54ACA3"/>
</g>
<defs>
<filter id="filter0_f_1_246" x="4.20883" y="15.2328" width="448.79" height="607.141" filterUnits="userSpaceOnUse" color-interpolation-filters="sRGB">
<feFlood flood-opacity="0" result="BackgroundImageFix"/>
<feBlend mode="normal" in="SourceGraphic" in2="BackgroundImageFix" result="shape"/>
<feGaussianBlur stdDeviation="4.5" result="effect1_foregroundBlur_1_246"/>
</filter>
</defs>
</svg>
