<svg width="468" height="669" viewBox="0 0 468 669" fill="none" xmlns="http://www.w3.org/2000/svg">
<path d="M373.46 262.112C373.565 262.168 373.673 262.223 373.781 262.274L435.636 291.664C436.131 291.899 436.289 292.143 436.366 292.304C436.472 292.525 436.54 292.865 436.472 293.268C436.404 293.671 436.228 293.97 436.056 294.144C435.93 294.271 435.701 294.45 435.156 294.51L308.077 308.477C296.632 309.735 289.962 322.032 295.149 332.311L365.221 471.172C365.508 471.74 365.453 472.036 365.415 472.18C365.354 472.412 365.173 472.74 364.811 473.025C364.448 473.311 364.087 473.411 363.847 473.416C363.698 473.419 363.398 473.404 362.912 472.992L225.105 356.247C216.853 349.256 204.218 351.962 199.554 361.72L83.2592 604.989C83.0816 605.361 82.9168 605.542 82.8262 605.626C82.734 605.711 82.6457 605.763 82.5493 605.799C82.3343 605.88 81.9348 605.928 81.4439 605.769C80.9529 605.61 80.6573 605.337 80.5306 605.146C80.4738 605.06 80.4325 604.966 80.4078 604.843C80.3835 604.722 80.3564 604.478 80.4302 604.073L130.925 327.054C132.493 318.451 127.077 310.118 118.578 308.059L21.8597 284.625C21.4463 284.525 21.232 284.357 21.0954 284.204C20.9331 284.023 20.7929 283.755 20.7353 283.425C20.6777 283.095 20.7189 282.796 20.81 282.57C20.8867 282.38 21.0316 282.15 21.3866 281.915L96.2901 232.473C102.999 228.045 105.54 219.427 102.307 212.067L59.0444 113.57C58.834 113.091 58.8666 112.805 58.9128 112.626C58.9742 112.388 59.1372 112.092 59.435 111.834C59.7328 111.576 60.0491 111.456 60.2934 111.429C60.4771 111.409 60.7648 111.417 61.2092 111.693L144.85 163.647C153.867 169.248 165.749 165.002 169.174 154.956L209.463 36.7853C209.628 36.3013 209.842 36.1111 209.999 36.0076C210.204 35.8722 210.52 35.7633 210.907 35.7695C211.294 35.7758 211.606 35.8948 211.807 36.0367C211.961 36.1451 212.168 36.3421 212.318 36.8312L241.292 131.694C244.641 142.656 257.87 146.949 267.017 140.041L409.934 32.1052C410.438 31.7247 410.738 31.7243 410.889 31.7356C411.128 31.7535 411.482 31.8719 411.827 32.1737C412.171 32.4755 412.335 32.8106 412.385 33.0455C412.416 33.1936 412.455 33.4907 412.144 34.0403L312.502 210.326C307.945 218.388 310.913 228.62 319.077 232.991L373.46 262.112Z" fill="#FFC12C"/>
<path d="M373.46 262.112C373.565 262.168 373.673 262.223 373.781 262.274L435.636 291.664C436.131 291.899 436.289 292.143 436.366 292.304C436.472 292.525 436.54 292.865 436.472 293.268C436.404 293.671 436.228 293.97 436.056 294.144C435.93 294.271 435.701 294.45 435.156 294.51L308.077 308.477C296.632 309.735 289.962 322.032 295.149 332.311L365.221 471.172C365.508 471.74 365.453 472.036 365.415 472.18C365.354 472.412 365.173 472.74 364.811 473.025C364.448 473.311 364.087 473.411 363.847 473.416C363.698 473.419 363.398 473.404 362.912 472.992L225.105 356.247C216.853 349.256 204.218 351.962 199.554 361.72L83.2592 604.989C83.0816 605.361 82.9168 605.542 82.8262 605.626C82.734 605.711 82.6457 605.763 82.5493 605.799C82.3343 605.88 81.9348 605.928 81.4439 605.769C80.9529 605.61 80.6573 605.337 80.5306 605.146C80.4738 605.06 80.4325 604.966 80.4078 604.843C80.3835 604.722 80.3564 604.478 80.4302 604.073L130.925 327.054C132.493 318.451 127.077 310.118 118.578 308.059L21.8597 284.625C21.4463 284.525 21.232 284.357 21.0954 284.204C20.9331 284.023 20.7929 283.755 20.7353 283.425C20.6777 283.095 20.7189 282.796 20.81 282.57C20.8867 282.38 21.0316 282.15 21.3866 281.915L96.2901 232.473C102.999 228.045 105.54 219.427 102.307 212.067L59.0444 113.57C58.834 113.091 58.8666 112.805 58.9128 112.626C58.9742 112.388 59.1372 112.092 59.435 111.834C59.7328 111.576 60.0491 111.456 60.2934 111.429C60.4771 111.409 60.7648 111.417 61.2092 111.693L144.85 163.647C153.867 169.248 165.749 165.002 169.174 154.956L209.463 36.7853C209.628 36.3013 209.842 36.1111 209.999 36.0076C210.204 35.8722 210.52 35.7633 210.907 35.7695C211.294 35.7758 211.606 35.8948 211.807 36.0367C211.961 36.1451 212.168 36.3421 212.318 36.8312L241.292 131.694C244.641 142.656 257.87 146.949 267.017 140.041L409.934 32.1052C410.438 31.7247 410.738 31.7243 410.889 31.7356C411.128 31.7535 411.482 31.8719 411.827 32.1737C412.171 32.4755 412.335 32.8106 412.385 33.0455C412.416 33.1936 412.455 33.4907 412.144 34.0403L312.502 210.326C307.945 218.388 310.913 228.62 319.077 232.991L373.46 262.112Z" fill="url(#paint0_linear_35_113)" fill-opacity="0.5"/>
<path d="M373.46 262.112C373.565 262.168 373.673 262.223 373.781 262.274L435.636 291.664C436.131 291.899 436.289 292.143 436.366 292.304C436.472 292.525 436.54 292.865 436.472 293.268C436.404 293.671 436.228 293.97 436.056 294.144C435.93 294.271 435.701 294.45 435.156 294.51L308.077 308.477C296.632 309.735 289.962 322.032 295.149 332.311L365.221 471.172C365.508 471.74 365.453 472.036 365.415 472.18C365.354 472.412 365.173 472.74 364.811 473.025C364.448 473.311 364.087 473.411 363.847 473.416C363.698 473.419 363.398 473.404 362.912 472.992L225.105 356.247C216.853 349.256 204.218 351.962 199.554 361.72L83.2592 604.989C83.0816 605.361 82.9168 605.542 82.8262 605.626C82.734 605.711 82.6457 605.763 82.5493 605.799C82.3343 605.88 81.9348 605.928 81.4439 605.769C80.9529 605.61 80.6573 605.337 80.5306 605.146C80.4738 605.06 80.4325 604.966 80.4078 604.843C80.3835 604.722 80.3564 604.478 80.4302 604.073L130.925 327.054C132.493 318.451 127.077 310.118 118.578 308.059L21.8597 284.625C21.4463 284.525 21.232 284.357 21.0954 284.204C20.9331 284.023 20.7929 283.755 20.7353 283.425C20.6777 283.095 20.7189 282.796 20.81 282.57C20.8867 282.38 21.0316 282.15 21.3866 281.915L96.2901 232.473C102.999 228.045 105.54 219.427 102.307 212.067L59.0444 113.57C58.834 113.091 58.8666 112.805 58.9128 112.626C58.9742 112.388 59.1372 112.092 59.435 111.834C59.7328 111.576 60.0491 111.456 60.2934 111.429C60.4771 111.409 60.7648 111.417 61.2092 111.693L144.85 163.647C153.867 169.248 165.749 165.002 169.174 154.956L209.463 36.7853C209.628 36.3013 209.842 36.1111 209.999 36.0076C210.204 35.8722 210.52 35.7633 210.907 35.7695C211.294 35.7758 211.606 35.8948 211.807 36.0367C211.961 36.1451 212.168 36.3421 212.318 36.8312L241.292 131.694C244.641 142.656 257.87 146.949 267.017 140.041L409.934 32.1052C410.438 31.7247 410.738 31.7243 410.889 31.7356C411.128 31.7535 411.482 31.8719 411.827 32.1737C412.171 32.4755 412.335 32.8106 412.385 33.0455C412.416 33.1936 412.455 33.4907 412.144 34.0403L312.502 210.326C307.945 218.388 310.913 228.62 319.077 232.991L373.46 262.112Z" stroke="url(#paint1_linear_35_113)" stroke-width="15" stroke-linejoin="round"/>
<defs>
<linearGradient id="paint0_linear_35_113" x1="415.5" y1="488.5" x2="11.5" y2="101" gradientUnits="userSpaceOnUse">
<stop offset="0.0571917" stop-color="#E17E0A"/>
<stop offset="0.0572917" stop-color="#E17E0A" stop-opacity="0.13"/>
<stop offset="0.229167" stop-color="#E17E0A"/>
<stop offset="0.634415" stop-color="#E17E0A" stop-opacity="0"/>
<stop offset="0.656875" stop-color="#E17E0A" stop-opacity="0"/>
<stop offset="0.739583" stop-color="#E17E0A" stop-opacity="0"/>
</linearGradient>
<linearGradient id="paint1_linear_35_113" x1="45" y1="58.5" x2="423" y2="398.5" gradientUnits="userSpaceOnUse">
<stop stop-color="#FFD438"/>
<stop offset="1" stop-color="#FFD438" stop-opacity="0"/>
</linearGradient>
</defs>
</svg>
