<svg width="520" height="683" viewBox="0 0 520 683" fill="none" xmlns="http://www.w3.org/2000/svg">
<g filter="url(#filter0_d_90_110)">
<path d="M202.364 34.365C205.183 26.0986 216.939 26.2876 219.49 34.6403L248.465 129.503C250.292 135.483 257.508 137.824 262.497 134.056L405.414 26.1203C413.206 20.2357 423.478 29.2305 418.673 37.7308L319.031 214.017C316.545 218.414 318.165 223.995 322.617 226.379L377 255.5L438.855 284.89C447.046 288.781 444.99 300.974 435.976 301.965L308.897 315.932C302.654 316.618 299.016 323.326 301.845 328.933L371.917 467.793C376.336 476.55 365.548 485.055 358.064 478.715L220.258 361.969C215.756 358.156 208.865 359.632 206.32 364.955L90.0258 608.224C85.4957 617.7 71.1683 613.061 73.0518 602.728L123.547 325.709C124.402 321.017 121.448 316.472 116.812 315.348L20.0936 291.914C12.4508 290.062 10.6918 279.988 17.255 275.656L92.1584 226.214C95.8177 223.799 97.2038 219.098 95.4406 215.083L52.1776 116.586C48.621 108.489 57.6541 100.655 65.1666 105.322L148.808 157.276C153.726 160.331 160.207 158.015 162.075 152.536L202.364 34.365Z" fill="#FFC12C"/>
<path d="M202.364 34.365C205.183 26.0986 216.939 26.2876 219.49 34.6403L248.465 129.503C250.292 135.483 257.508 137.824 262.497 134.056L405.414 26.1203C413.206 20.2357 423.478 29.2305 418.673 37.7308L319.031 214.017C316.545 218.414 318.165 223.995 322.617 226.379L377 255.5L438.855 284.89C447.046 288.781 444.99 300.974 435.976 301.965L308.897 315.932C302.654 316.618 299.016 323.326 301.845 328.933L371.917 467.793C376.336 476.55 365.548 485.055 358.064 478.715L220.258 361.969C215.756 358.156 208.865 359.632 206.32 364.955L90.0258 608.224C85.4957 617.7 71.1683 613.061 73.0518 602.728L123.547 325.709C124.402 321.017 121.448 316.472 116.812 315.348L20.0936 291.914C12.4508 290.062 10.6918 279.988 17.255 275.656L92.1584 226.214C95.8177 223.799 97.2038 219.098 95.4406 215.083L52.1776 116.586C48.621 108.489 57.6541 100.655 65.1666 105.322L148.808 157.276C153.726 160.331 160.207 158.015 162.075 152.536L202.364 34.365Z" fill="url(#paint0_linear_90_110)" fill-opacity="0.5"/>
<path d="M373.46 262.112C373.565 262.168 373.673 262.223 373.781 262.274L435.636 291.664C436.131 291.899 436.289 292.143 436.366 292.304C436.472 292.525 436.54 292.865 436.472 293.268C436.404 293.671 436.228 293.97 436.056 294.144C435.93 294.271 435.701 294.45 435.156 294.51L308.077 308.477C296.632 309.735 289.962 322.032 295.149 332.311L365.221 471.172C365.508 471.74 365.453 472.036 365.415 472.18C365.354 472.412 365.173 472.74 364.811 473.025C364.448 473.311 364.087 473.411 363.847 473.416C363.698 473.419 363.398 473.404 362.912 472.992L225.105 356.247C216.853 349.256 204.218 351.962 199.554 361.72L83.2592 604.989C83.0816 605.361 82.9168 605.542 82.8262 605.626C82.734 605.711 82.6457 605.763 82.5493 605.799C82.3343 605.88 81.9348 605.928 81.4439 605.769C80.953 605.61 80.6573 605.337 80.5306 605.146C80.4738 605.06 80.4325 604.966 80.4078 604.843C80.3835 604.722 80.3564 604.478 80.4302 604.073L130.925 327.054C132.493 318.451 127.077 310.118 118.578 308.059L21.8597 284.625C21.4463 284.525 21.232 284.357 21.0954 284.204C20.9331 284.023 20.7929 283.755 20.7353 283.425C20.6777 283.095 20.7189 282.796 20.81 282.57C20.8867 282.38 21.0316 282.15 21.3866 281.915L96.2901 232.473C102.999 228.045 105.54 219.427 102.307 212.067L59.0444 113.57C58.834 113.091 58.8666 112.805 58.9128 112.626C58.9742 112.388 59.1372 112.092 59.435 111.834C59.7328 111.576 60.0491 111.456 60.2935 111.429C60.4771 111.409 60.7648 111.417 61.2092 111.693L144.85 163.647C153.867 169.248 165.749 165.002 169.174 154.956L209.463 36.7853C209.628 36.3013 209.842 36.1111 209.999 36.0076C210.204 35.8722 210.52 35.7633 210.907 35.7695C211.294 35.7758 211.606 35.8948 211.807 36.0367C211.961 36.1451 212.168 36.3421 212.318 36.8312L241.292 131.694C244.641 142.656 257.87 146.949 267.017 140.041L409.934 32.1052C410.438 31.7247 410.738 31.7243 410.889 31.7356C411.128 31.7535 411.482 31.8719 411.827 32.1737C412.171 32.4755 412.335 32.8106 412.385 33.0455C412.416 33.1936 412.455 33.4907 412.144 34.0403L312.502 210.326C307.945 218.388 310.913 228.62 319.077 232.991L373.46 262.112Z" stroke="url(#paint1_linear_90_110)" stroke-width="15" stroke-linejoin="round"/>
</g>
<path d="M167.045 213.016L198.112 291.163L203.866 301.738L190.882 308.449L187.231 302.772C183.099 309.27 178.268 313.619 172.737 315.818C164.441 319.116 157.238 319.19 151.13 316.039C144.987 312.8 139.61 305.381 135 293.784C130.389 282.187 129.527 272.612 132.413 265.059C135.264 257.418 140.748 251.983 148.866 248.756C153.595 246.876 158.775 246.005 164.408 246.142L153.396 218.442L167.045 213.016ZM168.567 302.599C173.295 300.72 177.601 296.218 181.484 289.096L169.621 259.256C164.096 258.869 159.103 259.563 154.642 261.336C145.811 264.847 144.214 273.695 149.853 287.879C154.925 300.636 161.162 305.543 168.567 302.599ZM188.375 242.502C190.761 235.252 196.683 229.747 206.139 225.988C215.595 222.229 223.68 222.166 230.393 225.799C237.07 229.343 242.643 236.735 247.112 247.975C251.58 259.215 252.639 268.505 250.288 275.845C247.902 283.095 241.98 288.6 232.524 292.36C223.068 296.119 214.984 296.182 208.271 292.549C201.522 288.826 195.914 281.345 191.445 270.105C186.977 258.864 185.953 249.664 188.375 242.502ZM202.857 247.747C202.314 251.579 203.461 257.063 206.298 264.2C209.136 271.337 212.129 276.138 215.279 278.605C218.429 281.072 222.458 281.33 227.364 279.38C232.271 277.429 235.022 274.476 235.619 270.519C236.216 266.563 235.095 261.017 232.258 253.88C229.421 246.743 226.445 241.986 223.331 239.608C220.305 237.195 216.295 236.982 211.299 238.968C206.303 240.954 203.489 243.88 202.857 247.747ZM257.908 226.017L276.527 272.852L262.744 278.332L227.262 189.078L241.044 183.599L252.748 213.038C258.697 206.953 263.723 203.096 267.827 201.464C275.499 198.414 281.783 198.499 286.678 201.718C291.663 204.902 295.858 210.776 299.262 219.34L314.53 257.744L300.747 263.224L285.373 224.552C283.883 220.805 281.902 218.028 279.428 216.223C277.007 214.292 274.593 213.806 272.184 214.763C267.813 216.501 263.054 220.253 257.908 226.017Z" fill="white"/>
<path d="M167.045 213.016L167.975 212.647C167.771 212.134 167.189 211.883 166.676 212.087L167.045 213.016ZM198.112 291.163L197.183 291.533C197.198 291.57 197.215 291.606 197.234 291.641L198.112 291.163ZM203.866 301.738L204.325 302.626C204.564 302.503 204.743 302.288 204.822 302.031C204.901 301.774 204.873 301.496 204.744 301.26L203.866 301.738ZM190.882 308.449L190.041 308.99C190.32 309.424 190.883 309.574 191.342 309.337L190.882 308.449ZM187.231 302.772L188.072 302.231C187.888 301.945 187.57 301.772 187.228 301.772C186.887 301.773 186.57 301.948 186.387 302.236L187.231 302.772ZM151.13 316.039L150.664 316.924L150.672 316.928L151.13 316.039ZM132.413 265.059L133.348 265.416L133.35 265.409L132.413 265.059ZM164.408 246.142L164.384 247.141C164.719 247.15 165.037 246.989 165.229 246.713C165.421 246.438 165.461 246.084 165.337 245.772L164.408 246.142ZM153.396 218.442L153.027 217.513C152.514 217.717 152.263 218.299 152.467 218.812L153.396 218.442ZM181.484 289.096L182.362 289.575C182.504 289.314 182.523 289.003 182.413 288.727L181.484 289.096ZM169.621 259.256L170.551 258.886C170.409 258.529 170.074 258.285 169.691 258.258L169.621 259.256ZM166.116 213.386L197.183 291.533L199.041 290.794L167.975 212.647L166.116 213.386ZM197.234 291.641L202.987 302.216L204.744 301.26L198.991 290.686L197.234 291.641ZM203.406 300.85L190.423 307.561L191.342 309.337L204.325 302.626L203.406 300.85ZM191.723 307.908L188.072 302.231L186.39 303.313L190.041 308.99L191.723 307.908ZM186.387 302.236C182.335 308.608 177.653 312.787 172.368 314.888L173.106 316.747C178.883 314.45 183.863 309.932 188.075 303.309L186.387 302.236ZM172.368 314.888C164.254 318.114 157.368 318.131 151.589 315.15L150.672 316.928C157.109 320.248 164.627 320.118 173.106 316.747L172.368 314.888ZM151.597 315.155C145.777 312.086 140.514 304.948 135.929 293.414L134.071 294.153C138.706 305.814 144.197 313.513 150.664 316.924L151.597 315.155ZM135.929 293.414C131.363 281.928 130.589 272.636 133.348 265.416L131.479 264.702C128.466 272.588 129.416 282.445 134.071 294.153L135.929 293.414ZM133.35 265.409C136.095 258.053 141.359 252.817 149.236 249.685L148.497 247.827C140.137 251.15 134.434 256.783 131.477 264.71L133.35 265.409ZM149.236 249.685C153.826 247.861 158.871 247.008 164.384 247.141L164.432 245.142C158.679 245.002 153.363 245.892 148.497 247.827L149.236 249.685ZM165.337 245.772L154.326 218.073L152.467 218.812L163.479 246.511L165.337 245.772ZM153.766 219.372L167.415 213.946L166.676 212.087L153.027 217.513L153.766 219.372ZM168.936 303.528C173.977 301.524 178.429 296.788 182.362 289.575L180.606 288.617C176.772 295.649 172.612 299.915 168.197 301.67L168.936 303.528ZM182.413 288.727L170.551 258.886L168.692 259.625L180.555 289.465L182.413 288.727ZM169.691 258.258C164.039 257.863 158.893 258.57 154.273 260.407L155.012 262.265C159.313 260.556 164.153 259.876 169.552 260.253L169.691 258.258ZM154.273 260.407C149.558 262.281 146.701 265.641 145.837 270.428C144.99 275.123 146.078 281.09 148.924 288.248L150.782 287.51C147.989 280.484 147.056 274.935 147.805 270.783C148.538 266.722 150.895 263.902 155.012 262.265L154.273 260.407ZM148.924 288.248C151.483 294.686 154.392 299.297 157.717 301.913C161.117 304.588 164.904 305.131 168.936 303.528L168.197 301.67C164.825 303.011 161.791 302.573 158.953 300.341C156.04 298.05 153.294 293.829 150.782 287.51L148.924 288.248ZM188.375 242.502L189.322 242.823L189.325 242.815L188.375 242.502ZM230.393 225.799L229.917 226.678L229.924 226.682L230.393 225.799ZM250.288 275.845L251.238 276.158L251.24 276.15L250.288 275.845ZM208.271 292.549L207.788 293.424L207.795 293.428L208.271 292.549ZM202.857 247.747L201.87 247.586C201.869 247.593 201.868 247.6 201.867 247.607L202.857 247.747ZM223.331 239.608L222.707 240.39C222.713 240.395 222.718 240.399 222.724 240.403L223.331 239.608ZM189.325 242.815C191.59 235.932 197.23 230.606 206.508 226.917L205.769 225.059C196.135 228.889 189.933 234.572 187.425 242.19L189.325 242.815ZM206.508 226.917C215.787 223.229 223.544 223.229 229.917 226.678L230.868 224.919C223.815 221.102 215.403 221.229 205.769 225.059L206.508 226.917ZM229.924 226.682C236.298 230.065 241.752 237.2 246.182 248.344L248.041 247.606C243.534 236.269 237.842 228.62 230.861 224.915L229.924 226.682ZM246.182 248.344C250.611 259.485 251.585 268.516 249.336 275.54L251.24 276.15C253.692 268.495 252.549 258.946 248.041 247.606L246.182 248.344ZM249.338 275.532C247.073 282.415 241.433 287.742 232.155 291.43L232.894 293.289C242.528 289.459 248.731 283.776 251.238 276.158L249.338 275.532ZM232.155 291.43C222.876 295.119 215.119 295.118 208.747 291.669L207.795 293.428C214.848 297.246 223.26 297.119 232.894 293.289L232.155 291.43ZM208.754 291.673C202.295 288.111 196.803 280.876 192.374 269.735L190.516 270.474C195.024 281.814 200.749 289.542 207.788 293.424L208.754 291.673ZM192.374 269.735C187.944 258.591 187.011 249.659 189.322 242.823L187.428 242.182C184.896 249.669 186.009 259.138 190.516 270.474L192.374 269.735ZM201.867 247.607C201.285 251.711 202.519 257.401 205.369 264.569L207.228 263.831C204.403 256.725 203.343 251.447 203.847 247.888L201.867 247.607ZM205.369 264.569C208.222 271.745 211.295 276.756 214.663 279.393L215.896 277.818C212.963 275.521 210.049 270.929 207.228 263.831L205.369 264.569ZM214.663 279.393C218.182 282.148 222.617 282.343 227.734 280.309L226.995 278.45C222.298 280.317 218.677 279.996 215.896 277.818L214.663 279.393ZM227.734 280.309C232.85 278.275 235.941 275.088 236.608 270.668L234.63 270.37C234.103 273.863 231.691 276.583 226.995 278.45L227.734 280.309ZM236.608 270.668C237.246 266.439 236.04 260.686 233.188 253.51L231.329 254.249C234.151 261.347 235.186 266.687 234.63 270.37L236.608 270.668ZM233.188 253.51C230.337 246.339 227.279 241.364 223.937 238.814L222.724 240.403C225.612 242.608 228.506 247.147 231.329 254.249L233.188 253.51ZM223.954 238.827C220.544 236.107 216.113 235.978 210.929 238.039L211.668 239.897C216.476 237.986 220.066 238.284 222.707 240.39L223.954 238.827ZM210.929 238.039C205.743 240.1 202.579 243.249 201.87 247.586L203.844 247.909C204.399 244.512 206.863 241.807 211.668 239.897L210.929 238.039ZM257.908 226.017L257.162 225.352C256.909 225.634 256.839 226.035 256.978 226.387L257.908 226.017ZM276.527 272.852L276.896 273.782C277.409 273.578 277.66 272.996 277.456 272.483L276.527 272.852ZM262.744 278.332L261.814 278.701C262.018 279.214 262.6 279.465 263.113 279.261L262.744 278.332ZM227.262 189.078L226.892 188.148C226.379 188.353 226.128 188.934 226.332 189.447L227.262 189.078ZM241.044 183.599L241.974 183.229C241.77 182.716 241.188 182.465 240.675 182.669L241.044 183.599ZM252.748 213.038L251.818 213.407C251.943 213.722 252.219 213.951 252.551 214.018C252.883 214.085 253.226 213.979 253.463 213.737L252.748 213.038ZM286.678 201.718L286.129 202.554L286.14 202.561L286.678 201.718ZM314.53 257.744L314.899 258.674C315.412 258.47 315.663 257.888 315.459 257.375L314.53 257.744ZM300.747 263.224L299.818 263.593C300.022 264.106 300.603 264.357 301.116 264.153L300.747 263.224ZM279.428 216.223L278.804 217.005C278.815 217.013 278.827 217.022 278.838 217.03L279.428 216.223ZM256.978 226.387L275.597 273.222L277.456 272.483L258.837 225.648L256.978 226.387ZM276.157 271.923L262.374 277.402L263.113 279.261L276.896 273.782L276.157 271.923ZM263.673 277.962L228.191 188.708L226.332 189.447L261.814 278.701L263.673 277.962ZM227.631 190.007L241.414 184.528L240.675 182.669L226.892 188.148L227.631 190.007ZM240.115 183.968L251.818 213.407L253.677 212.668L241.974 183.229L240.115 183.968ZM253.463 213.737C259.388 207.677 264.294 203.945 268.196 202.394L267.457 200.535C263.152 202.246 258.006 206.23 252.033 212.338L253.463 213.737ZM268.196 202.394C275.699 199.411 281.607 199.58 286.129 202.554L287.228 200.883C281.958 197.418 275.299 197.418 267.457 200.535L268.196 202.394ZM286.14 202.561C290.874 205.585 294.966 211.239 298.333 219.709L300.191 218.97C296.75 210.313 292.452 204.219 287.216 200.875L286.14 202.561ZM298.333 219.709L313.6 258.114L315.459 257.375L300.191 218.97L298.333 219.709ZM314.16 256.815L300.377 262.294L301.116 264.153L314.899 258.674L314.16 256.815ZM301.676 262.854L286.302 224.182L284.444 224.921L299.818 263.593L301.676 262.854ZM286.302 224.182C284.765 220.314 282.685 217.362 280.017 215.415L278.838 217.03C281.119 218.695 283.002 221.295 284.444 224.921L286.302 224.182ZM280.051 215.441C277.415 213.338 274.627 212.716 271.815 213.834L272.554 215.693C274.558 214.896 276.6 215.246 278.804 217.005L280.051 215.441ZM271.815 213.834C267.235 215.655 262.353 219.536 257.162 225.352L258.654 226.683C263.755 220.969 268.391 217.348 272.554 215.693L271.815 213.834Z" fill="#FAEEEE"/>
<defs>
<filter id="filter0_d_90_110" x="13.2088" y="24.2328" width="506.79" height="658.141" filterUnits="userSpaceOnUse" color-interpolation-filters="sRGB">
<feFlood flood-opacity="0" result="BackgroundImageFix"/>
<feColorMatrix in="SourceAlpha" type="matrix" values="0 0 0 0 0 0 0 0 0 0 0 0 0 0 0 0 0 0 127 0" result="hardAlpha"/>
<feOffset dx="65" dy="58"/>
<feGaussianBlur stdDeviation="5.5"/>
<feComposite in2="hardAlpha" operator="out"/>
<feColorMatrix type="matrix" values="0 0 0 0 0.329412 0 0 0 0 0.67451 0 0 0 0 0.639216 0 0 0 1 0"/>
<feBlend mode="normal" in2="BackgroundImageFix" result="effect1_dropShadow_90_110"/>
<feBlend mode="normal" in="SourceGraphic" in2="effect1_dropShadow_90_110" result="shape"/>
</filter>
<linearGradient id="paint0_linear_90_110" x1="415.5" y1="488.5" x2="11.5" y2="101" gradientUnits="userSpaceOnUse">
<stop offset="0.0571917" stop-color="#E17E0A"/>
<stop offset="0.0572917" stop-color="#E17E0A" stop-opacity="0.13"/>
<stop offset="0.229167" stop-color="#E17E0A"/>
<stop offset="0.634415" stop-color="#E17E0A" stop-opacity="0"/>
<stop offset="0.656875" stop-color="#E17E0A" stop-opacity="0"/>
<stop offset="0.739583" stop-color="#E17E0A" stop-opacity="0"/>
</linearGradient>
<linearGradient id="paint1_linear_90_110" x1="45" y1="58.5" x2="423" y2="398.5" gradientUnits="userSpaceOnUse">
<stop stop-color="#FFD438"/>
<stop offset="1" stop-color="#FFD438" stop-opacity="0"/>
</linearGradient>
</defs>
</svg>
