<svg width="520" height="683" viewBox="0 0 520 683" fill="none" xmlns="http://www.w3.org/2000/svg">
<g filter="url(#filter0_d_35:113)">
<path d="M202.364 34.365C205.183 26.0986 216.939 26.2876 219.49 34.6403L248.465 129.503C250.292 135.483 257.508 137.824 262.497 134.056L405.414 26.1203C413.206 20.2357 423.478 29.2305 418.673 37.7308L319.031 214.017C316.545 218.414 318.165 223.995 322.617 226.379L377 255.5L438.855 284.89C447.046 288.781 444.99 300.974 435.976 301.965L308.897 315.932C302.654 316.618 299.016 323.326 301.845 328.933L371.917 467.793C376.336 476.55 365.548 485.055 358.064 478.715L220.258 361.969C215.756 358.156 208.865 359.632 206.32 364.955L90.0258 608.224C85.4957 617.7 71.1683 613.061 73.0518 602.728L123.547 325.709C124.402 321.017 121.448 316.472 116.812 315.348L20.0936 291.914C12.4508 290.062 10.6918 279.988 17.255 275.656L92.1584 226.214C95.8177 223.799 97.2038 219.098 95.4406 215.083L52.1776 116.586C48.621 108.489 57.6541 100.655 65.1666 105.322L148.808 157.276C153.726 160.331 160.207 158.015 162.075 152.536L202.364 34.365Z" fill="#FFC12C"/>
<path d="M202.364 34.365C205.183 26.0986 216.939 26.2876 219.49 34.6403L248.465 129.503C250.292 135.483 257.508 137.824 262.497 134.056L405.414 26.1203C413.206 20.2357 423.478 29.2305 418.673 37.7308L319.031 214.017C316.545 218.414 318.165 223.995 322.617 226.379L377 255.5L438.855 284.89C447.046 288.781 444.99 300.974 435.976 301.965L308.897 315.932C302.654 316.618 299.016 323.326 301.845 328.933L371.917 467.793C376.336 476.55 365.548 485.055 358.064 478.715L220.258 361.969C215.756 358.156 208.865 359.632 206.32 364.955L90.0258 608.224C85.4957 617.7 71.1683 613.061 73.0518 602.728L123.547 325.709C124.402 321.017 121.448 316.472 116.812 315.348L20.0936 291.914C12.4508 290.062 10.6918 279.988 17.255 275.656L92.1584 226.214C95.8177 223.799 97.2038 219.098 95.4406 215.083L52.1776 116.586C48.621 108.489 57.6541 100.655 65.1666 105.322L148.808 157.276C153.726 160.331 160.207 158.015 162.075 152.536L202.364 34.365Z" fill="url(#paint0_linear_35:113)" fill-opacity="0.5"/>
<path d="M373.46 262.112C373.565 262.168 373.673 262.223 373.781 262.274L435.636 291.664C436.131 291.899 436.289 292.143 436.366 292.304C436.472 292.525 436.54 292.865 436.472 293.268C436.404 293.671 436.228 293.97 436.056 294.144C435.93 294.271 435.701 294.45 435.156 294.51L308.077 308.477C296.632 309.735 289.962 322.032 295.149 332.311L365.221 471.172C365.508 471.74 365.453 472.036 365.415 472.18C365.354 472.412 365.173 472.74 364.811 473.025C364.448 473.311 364.087 473.411 363.847 473.416C363.698 473.419 363.398 473.404 362.912 472.992L225.105 356.247C216.853 349.256 204.218 351.962 199.554 361.72L83.2592 604.989C83.0816 605.361 82.9168 605.542 82.8262 605.626C82.734 605.711 82.6457 605.763 82.5493 605.799C82.3343 605.88 81.9348 605.928 81.4439 605.769C80.9529 605.61 80.6573 605.337 80.5306 605.146C80.4738 605.06 80.4325 604.966 80.4078 604.843C80.3835 604.722 80.3564 604.478 80.4302 604.073L130.925 327.054C132.493 318.451 127.077 310.118 118.578 308.059L21.8597 284.625C21.4463 284.525 21.232 284.357 21.0954 284.204C20.9331 284.023 20.7929 283.755 20.7353 283.425C20.6777 283.095 20.7189 282.796 20.81 282.57C20.8867 282.38 21.0316 282.15 21.3866 281.915L96.2901 232.473C102.999 228.045 105.54 219.427 102.307 212.067L59.0444 113.57C58.834 113.091 58.8666 112.805 58.9128 112.626C58.9742 112.388 59.1372 112.092 59.435 111.834C59.7328 111.576 60.0491 111.456 60.2934 111.429C60.4771 111.409 60.7648 111.417 61.2092 111.693L144.85 163.647C153.867 169.248 165.749 165.002 169.174 154.956L209.463 36.7853C209.628 36.3013 209.842 36.1111 209.999 36.0076C210.204 35.8722 210.52 35.7633 210.907 35.7695C211.294 35.7758 211.606 35.8948 211.807 36.0367C211.961 36.1451 212.168 36.3421 212.318 36.8312L241.292 131.694C244.641 142.656 257.87 146.949 267.017 140.041L409.934 32.1052C410.438 31.7247 410.738 31.7243 410.889 31.7356C411.128 31.7535 411.482 31.8719 411.827 32.1737C412.171 32.4755 412.335 32.8106 412.385 33.0455C412.416 33.1936 412.455 33.4907 412.144 34.0403L312.502 210.326C307.945 218.388 310.913 228.62 319.077 232.991L373.46 262.112Z" stroke="url(#paint1_linear_35:113)" stroke-width="15" stroke-linejoin="round"/>
</g>
<path d="M168.045 215.016L199.112 293.163L204.866 303.738L191.882 310.449L188.231 304.772C184.099 311.27 179.268 315.619 173.737 317.818C165.441 321.116 158.238 321.19 152.13 318.039C145.987 314.8 140.61 307.381 136 295.784C131.389 284.187 130.527 274.612 133.413 267.059C136.264 259.418 141.748 253.983 149.866 250.756C154.595 248.876 159.775 248.005 165.408 248.142L154.396 220.442L168.045 215.016ZM169.567 304.599C174.295 302.72 178.601 298.218 182.484 291.096L170.621 261.256C165.096 260.869 160.103 261.563 155.642 263.336C146.811 266.847 145.214 275.695 150.853 289.879C155.925 302.636 162.162 307.543 169.567 304.599ZM189.375 244.502C191.761 237.252 197.683 231.747 207.139 227.988C216.595 224.229 224.68 224.166 231.393 227.799C238.07 231.343 243.643 238.735 248.112 249.975C252.58 261.215 253.639 270.505 251.288 277.845C248.902 285.095 242.98 290.6 233.524 294.36C224.068 298.119 215.984 298.182 209.271 294.549C202.522 290.826 196.914 283.345 192.445 272.105C187.977 260.864 186.953 251.664 189.375 244.502ZM203.857 249.747C203.314 253.579 204.461 259.063 207.298 266.2C210.136 273.337 213.129 278.138 216.279 280.605C219.429 283.072 223.458 283.33 228.364 281.38C233.271 279.429 236.022 276.476 236.619 272.519C237.216 268.563 236.095 263.017 233.258 255.88C230.421 248.743 227.445 243.986 224.331 241.608C221.305 239.195 217.295 238.982 212.299 240.968C207.303 242.954 204.489 245.88 203.857 249.747ZM258.908 228.017L277.527 274.852L263.744 280.332L228.262 191.078L242.044 185.599L253.748 215.038C259.697 208.953 264.723 205.096 268.827 203.464C276.499 200.414 282.783 200.499 287.678 203.718C292.663 206.902 296.858 212.776 300.262 221.34L315.53 259.744L301.747 265.224L286.373 226.552C284.883 222.805 282.902 220.028 280.428 218.223C278.007 216.292 275.593 215.806 273.184 216.763C268.813 218.501 264.054 222.253 258.908 228.017Z" fill="white"/>
<path d="M168.045 215.016L168.975 214.647C168.771 214.134 168.189 213.883 167.676 214.087L168.045 215.016ZM199.112 293.163L198.183 293.533C198.198 293.57 198.215 293.606 198.234 293.641L199.112 293.163ZM204.866 303.738L205.325 304.626C205.564 304.503 205.743 304.288 205.822 304.031C205.901 303.774 205.873 303.496 205.744 303.26L204.866 303.738ZM191.882 310.449L191.041 310.99C191.32 311.424 191.883 311.574 192.342 311.337L191.882 310.449ZM188.231 304.772L189.072 304.231C188.888 303.945 188.57 303.772 188.228 303.772C187.887 303.773 187.57 303.948 187.387 304.236L188.231 304.772ZM152.13 318.039L151.664 318.924L151.672 318.928L152.13 318.039ZM133.413 267.059L134.348 267.416L134.35 267.409L133.413 267.059ZM165.408 248.142L165.384 249.141C165.719 249.15 166.037 248.989 166.229 248.713C166.421 248.438 166.461 248.084 166.337 247.772L165.408 248.142ZM154.396 220.442L154.027 219.513C153.514 219.717 153.263 220.299 153.467 220.812L154.396 220.442ZM182.484 291.096L183.362 291.575C183.504 291.314 183.523 291.003 183.413 290.727L182.484 291.096ZM170.621 261.256L171.551 260.886C171.409 260.529 171.074 260.285 170.691 260.258L170.621 261.256ZM167.116 215.386L198.183 293.533L200.041 292.794L168.975 214.647L167.116 215.386ZM198.234 293.641L203.987 304.216L205.744 303.26L199.991 292.686L198.234 293.641ZM204.406 302.85L191.423 309.561L192.342 311.337L205.325 304.626L204.406 302.85ZM192.723 309.908L189.072 304.231L187.39 305.313L191.041 310.99L192.723 309.908ZM187.387 304.236C183.335 310.608 178.653 314.787 173.368 316.888L174.106 318.747C179.883 316.45 184.863 311.932 189.075 305.309L187.387 304.236ZM173.368 316.888C165.254 320.114 158.368 320.131 152.589 317.15L151.672 318.928C158.109 322.248 165.627 322.118 174.106 318.747L173.368 316.888ZM152.597 317.155C146.777 314.086 141.514 306.948 136.929 295.414L135.071 296.153C139.706 307.814 145.197 315.513 151.664 318.924L152.597 317.155ZM136.929 295.414C132.363 283.928 131.589 274.636 134.348 267.416L132.479 266.702C129.466 274.588 130.416 284.445 135.071 296.153L136.929 295.414ZM134.35 267.409C137.095 260.053 142.359 254.817 150.236 251.685L149.497 249.827C141.137 253.15 135.434 258.783 132.477 266.71L134.35 267.409ZM150.236 251.685C154.826 249.861 159.871 249.008 165.384 249.141L165.432 247.142C159.679 247.002 154.363 247.892 149.497 249.827L150.236 251.685ZM166.337 247.772L155.326 220.073L153.467 220.812L164.479 248.511L166.337 247.772ZM154.766 221.372L168.415 215.946L167.676 214.087L154.027 219.513L154.766 221.372ZM169.936 305.528C174.977 303.524 179.429 298.788 183.362 291.575L181.606 290.617C177.772 297.649 173.612 301.915 169.197 303.67L169.936 305.528ZM183.413 290.727L171.551 260.886L169.692 261.625L181.555 291.465L183.413 290.727ZM170.691 260.258C165.039 259.863 159.893 260.57 155.273 262.407L156.012 264.265C160.313 262.556 165.153 261.876 170.552 262.253L170.691 260.258ZM155.273 262.407C150.558 264.281 147.701 267.641 146.837 272.428C145.99 277.123 147.078 283.09 149.924 290.248L151.782 289.51C148.989 282.484 148.056 276.935 148.805 272.783C149.538 268.722 151.895 265.902 156.012 264.265L155.273 262.407ZM149.924 290.248C152.483 296.686 155.392 301.297 158.717 303.913C162.117 306.588 165.904 307.131 169.936 305.528L169.197 303.67C165.825 305.011 162.791 304.573 159.953 302.341C157.04 300.05 154.294 295.829 151.782 289.51L149.924 290.248ZM189.375 244.502L190.322 244.823L190.325 244.815L189.375 244.502ZM231.393 227.799L230.917 228.678L230.924 228.682L231.393 227.799ZM251.288 277.845L252.238 278.158L252.24 278.15L251.288 277.845ZM209.271 294.549L208.788 295.424L208.795 295.428L209.271 294.549ZM203.857 249.747L202.87 249.586C202.869 249.593 202.868 249.6 202.867 249.607L203.857 249.747ZM224.331 241.608L223.707 242.39C223.713 242.395 223.718 242.399 223.724 242.403L224.331 241.608ZM190.325 244.815C192.59 237.932 198.23 232.606 207.508 228.917L206.769 227.059C197.135 230.889 190.933 236.572 188.425 244.19L190.325 244.815ZM207.508 228.917C216.787 225.229 224.544 225.229 230.917 228.678L231.868 226.919C224.815 223.102 216.403 223.229 206.769 227.059L207.508 228.917ZM230.924 228.682C237.298 232.065 242.752 239.2 247.182 250.344L249.041 249.606C244.534 238.269 238.842 230.62 231.861 226.915L230.924 228.682ZM247.182 250.344C251.611 261.485 252.585 270.516 250.336 277.54L252.24 278.15C254.692 270.495 253.549 260.946 249.041 249.606L247.182 250.344ZM250.338 277.532C248.073 284.415 242.433 289.742 233.155 293.43L233.894 295.289C243.528 291.459 249.731 285.776 252.238 278.158L250.338 277.532ZM233.155 293.43C223.876 297.119 216.119 297.118 209.747 293.669L208.795 295.428C215.848 299.246 224.26 299.119 233.894 295.289L233.155 293.43ZM209.754 293.673C203.295 290.111 197.803 282.876 193.374 271.735L191.516 272.474C196.024 283.814 201.749 291.542 208.788 295.424L209.754 293.673ZM193.374 271.735C188.944 260.591 188.011 251.659 190.322 244.823L188.428 244.182C185.896 251.669 187.009 261.138 191.516 272.474L193.374 271.735ZM202.867 249.607C202.285 253.711 203.519 259.401 206.369 266.569L208.228 265.831C205.403 258.725 204.343 253.448 204.847 249.888L202.867 249.607ZM206.369 266.569C209.222 273.745 212.295 278.756 215.663 281.393L216.896 279.818C213.963 277.521 211.049 272.929 208.228 265.831L206.369 266.569ZM215.663 281.393C219.182 284.148 223.617 284.343 228.734 282.309L227.995 280.45C223.298 282.317 219.677 281.996 216.896 279.818L215.663 281.393ZM228.734 282.309C233.85 280.275 236.941 277.088 237.608 272.669L235.63 272.37C235.103 275.863 232.691 278.583 227.995 280.45L228.734 282.309ZM237.608 272.669C238.246 268.439 237.04 262.686 234.188 255.51L232.329 256.249C235.151 263.347 236.186 268.687 235.63 272.37L237.608 272.669ZM234.188 255.51C231.337 248.339 228.279 243.364 224.937 240.814L223.724 242.403C226.612 244.608 229.506 249.147 232.329 256.249L234.188 255.51ZM224.954 240.827C221.544 238.107 217.113 237.978 211.929 240.039L212.668 241.897C217.476 239.986 221.066 240.284 223.707 242.39L224.954 240.827ZM211.929 240.039C206.743 242.1 203.579 245.249 202.87 249.586L204.844 249.909C205.399 246.512 207.863 243.807 212.668 241.897L211.929 240.039ZM258.908 228.017L258.162 227.352C257.909 227.634 257.839 228.035 257.978 228.387L258.908 228.017ZM277.527 274.852L277.896 275.782C278.409 275.578 278.66 274.996 278.456 274.483L277.527 274.852ZM263.744 280.332L262.814 280.701C263.018 281.214 263.6 281.465 264.113 281.261L263.744 280.332ZM228.262 191.078L227.892 190.149C227.379 190.353 227.128 190.934 227.332 191.447L228.262 191.078ZM242.044 185.599L242.974 185.229C242.77 184.716 242.188 184.465 241.675 184.669L242.044 185.599ZM253.748 215.038L252.818 215.407C252.943 215.722 253.219 215.951 253.551 216.018C253.883 216.085 254.226 215.979 254.463 215.737L253.748 215.038ZM287.678 203.718L287.129 204.554L287.14 204.561L287.678 203.718ZM315.53 259.744L315.899 260.674C316.412 260.47 316.663 259.888 316.459 259.375L315.53 259.744ZM301.747 265.224L300.818 265.593C301.022 266.106 301.603 266.357 302.116 266.153L301.747 265.224ZM280.428 218.223L279.804 219.005C279.815 219.013 279.827 219.022 279.838 219.03L280.428 218.223ZM257.978 228.387L276.597 275.222L278.456 274.483L259.837 227.648L257.978 228.387ZM277.157 273.923L263.374 279.402L264.113 281.261L277.896 275.782L277.157 273.923ZM264.673 279.962L229.191 190.708L227.332 191.447L262.814 280.701L264.673 279.962ZM228.631 192.007L242.414 186.528L241.675 184.669L227.892 190.149L228.631 192.007ZM241.115 185.968L252.818 215.407L254.677 214.668L242.974 185.229L241.115 185.968ZM254.463 215.737C260.388 209.677 265.294 205.945 269.196 204.394L268.457 202.535C264.152 204.246 259.006 208.23 253.033 214.338L254.463 215.737ZM269.196 204.394C276.699 201.411 282.607 201.58 287.129 204.554L288.228 202.883C282.958 199.418 276.299 199.418 268.457 202.535L269.196 204.394ZM287.14 204.561C291.874 207.585 295.966 213.239 299.333 221.709L301.191 220.97C297.75 212.313 293.452 206.219 288.216 202.875L287.14 204.561ZM299.333 221.709L314.6 260.114L316.459 259.375L301.191 220.97L299.333 221.709ZM315.16 258.815L301.377 264.294L302.116 266.153L315.899 260.674L315.16 258.815ZM302.676 264.854L287.302 226.182L285.444 226.921L300.818 265.593L302.676 264.854ZM287.302 226.182C285.765 222.314 283.685 219.362 281.017 217.415L279.838 219.03C282.119 220.695 284.002 223.295 285.444 226.921L287.302 226.182ZM281.051 217.441C278.415 215.338 275.627 214.716 272.815 215.834L273.554 217.693C275.558 216.896 277.6 217.246 279.804 219.005L281.051 217.441ZM272.815 215.834C268.235 217.655 263.353 221.536 258.162 227.352L259.654 228.683C264.755 222.969 269.391 219.348 273.554 217.693L272.815 215.834Z" fill="#FAEEEE"/>
<defs>
<filter id="filter0_d_35:113" x="13.2089" y="24.2328" width="506.79" height="658.142" filterUnits="userSpaceOnUse" color-interpolation-filters="sRGB">
<feFlood flood-opacity="0" result="BackgroundImageFix"/>
<feColorMatrix in="SourceAlpha" type="matrix" values="0 0 0 0 0 0 0 0 0 0 0 0 0 0 0 0 0 0 127 0" result="hardAlpha"/>
<feOffset dx="65" dy="58"/>
<feGaussianBlur stdDeviation="5.5"/>
<feComposite in2="hardAlpha" operator="out"/>
<feColorMatrix type="matrix" values="0 0 0 0 0.329412 0 0 0 0 0.67451 0 0 0 0 0.639216 0 0 0 1 0"/>
<feBlend mode="normal" in2="BackgroundImageFix" result="effect1_dropShadow_35:113"/>
<feBlend mode="normal" in="SourceGraphic" in2="effect1_dropShadow_35:113" result="shape"/>
</filter>
<linearGradient id="paint0_linear_35:113" x1="415.5" y1="488.5" x2="11.5" y2="101" gradientUnits="userSpaceOnUse">
<stop offset="0.0571917" stop-color="#E17E0A"/>
<stop offset="0.0572917" stop-color="#E17E0A" stop-opacity="0.13"/>
<stop offset="0.229167" stop-color="#E17E0A"/>
<stop offset="0.634415" stop-color="#E17E0A" stop-opacity="0"/>
<stop offset="0.656875" stop-color="#E17E0A" stop-opacity="0"/>
<stop offset="0.739583" stop-color="#E17E0A" stop-opacity="0"/>
</linearGradient>
<linearGradient id="paint1_linear_35:113" x1="45" y1="58.5" x2="423" y2="398.5" gradientUnits="userSpaceOnUse">
<stop stop-color="#FFD438"/>
<stop offset="1" stop-color="#FFD438" stop-opacity="0"/>
</linearGradient>
</defs>
</svg>
